<?xml version="1.0" encoding="utf-8"?>
<!-- Generator: Adobe Illustrator 26.0.3, SVG Export Plug-In . SVG Version: 6.00 Build 0)  -->
<svg version="1.0" id="Layer_1" xmlns="http://www.w3.org/2000/svg" xmlns:xlink="http://www.w3.org/1999/xlink" x="0px" y="0px"
	 viewBox="0 0 712 562" style="enable-background:new 0 0 712 562;" xml:space="preserve">
<style type="text/css">
	.st0{fill:#2C41CA;}
</style>
<path class="st0" d="M373.4,372.9c1.5,0,4.1-0.5,6.1-3.8c-1.1-3.1-1.8-6.4-2.1-9.7c-0.6-9.8,3.1-18.9,7.2-19.1
	c3-0.2,5.4,2.7,5.7,7.3c0.8,12.1-3.3,17.2-5.3,21.6c0.3,1.7,3.2,4.6,5.9,4.6c0.9,0,1.8-0.3,2.5-0.9c-0.3-1-0.4-1.9-0.4-2.9
	c0-7,4.5-13,8.5-13c3.1,0,4.9,4.1,4.9,6.8c0,3.2-2.7,5.8-6.7,8.3c0.9,0.8,2,1.2,3.1,1.2c5.7,0,8.7-6.9,10.9-13.2
	c0.4-1.2,1.1-2.9,2.5-2.9c2.4,0,3.4,15.8,7.5,15.8c1.7,0,3.1-3.5,3.1-6.2c0-2-0.7-2.2-0.7-5.1c0-3.2,1.7-5.9,4-5.9
	c1.4,0,1.9,1.4,1.9,3.1c0,6.4-4.6,18.4-11.5,18.4c-5.1,0-4.7-8.8-6.5-8.8c-2,0-4.9,9-14.8,9c-1.8-0.1-3.6-0.9-4.7-2.4
	c-1.9,1.5-4.3,2.3-6.8,2.3c-3.7,0-5.3-3.8-6.8-3.8c-1.8,0-3.8,3.9-9.8,3.9c-4.8,0-5.6-6.4-7.3-6.4c-1.5,0-3.8,6.4-6.4,6.4
	c-4.2,0-5.1-11.1-8.8-11.1c-2.9,0-12.1,11.3-14.6,11.1c-0.8-0.1-1.4-0.8-1.3-1.6c0-0.1,0-0.2,0-0.3c0.1-1.4,1.4-5.1,1.9-6.9
	c0.8-3.1,1.6-6.4,2-7.4c0.4-1,1.3-1.7,2.4-1.8c0.5,0.1,0.6,0.9,0.8,1.6c0.5,2.5,1.2,5,2,5c1.4,0,6.1-9,8.8-9
	c3.3,0.1,3.7,14.1,8.3,14.1c1.5,0,2.6-1.8,3.6-4c0.1-3.7,1.1-9,4.1-9c2.1,0,3.1,4.7,1.6,8.8C368.1,371.7,371.3,372.9,373.4,372.9z
	 M453.7,360.9c-1.2,5.2-5,12.8-10.6,12.8c-1.3,0-3.6-0.5-3.6-1.8s8.8-1.6,8.8-8.3c0-2.5-2.3-6-5.7-6c-4.5,0-8.9,4.9-8.9,11.8
	c0,6.1,3.8,8.1,7.6,8.1c6.6,0,10.6-5.4,12.8-10c1,3,1.6,10,4.1,10c1,0,1.7-0.5,2.9-3.2c3-6.8,5.9-14.5,10-14.5
	c1.5,0,0.6,2.7,4.2,2.7c1.6,0,2.9-1.4,2.9-3c0-2.3-2.1-4.1-5.3-4.1c-9.4,0-11.5,14.1-13,14.1c-2.5,0-1.7-11.3-3.5-11.3
	S453.9,360,453.7,360.9L453.7,360.9z M387.1,350.3c-0.2-2.8-0.8-4.1-2.4-4c-2,0.1-2.9,6.4-2.5,13c0.3,4.3,0.9,5,1.5,4.9
	C384.8,364.3,387.5,356.6,387.1,350.3L387.1,350.3z M370.8,344.4c-0.1-1.6-1.5-2.8-3.1-2.7c-1.9,0-3.7,2-3.5,4.5c0,1.7,1.3,3,3,3
	C369.4,349.2,371,346.7,370.8,344.4L370.8,344.4z M402,364.9c0-1.7-0.9-3.1-2-3.1c-0.9,0-3,1-3,4.2c-0.1,1.5,0.4,3,1.3,4.2
	C400.6,369.5,402.2,367.3,402,364.9z M441.2,361.5c2.1,0,2.7,2.5,2.2,4s-2.3,3.2-5.1,3.7C437.7,367.7,437.4,361.5,441.2,361.5
	L441.2,361.5z M325.6,354.4c-0.5-1.5-1-3-1.4-4.5c-0.5-3.3,1.2-5.5,2.9-6.1s2.5,0.4,3.2,2.5c0.9,3.2,1,7.5,0.7,13.5
	c-0.4,8.3-4.5,18.2-14.7,18c-8.8-0.2-12.8-5.9-13.2-14.7c-0.3-4.8,0.4-9.5,1.8-14.1c0.9-3.1,1.7-4.2,4.5-4.9c2.2-0.4,2,1.9,1.5,4.6
	c-1.1,6-1.6,9-1.2,15.8c0.4,7.2,3.7,10,7.3,10c5.4,0.1,7.9-4.4,8.8-10.9C326.8,358.5,326.2,355.9,325.6,354.4L325.6,354.4z"/>
<path class="st0" d="M444,223.8c0.7,5.1,8.3,11.9,10.5,11.8c1.4-0.1,1.9-6.6,1.9-11.8c0-2.9,0.1-5.2-1.4-5.7
	C452.5,223,446.1,224,444,223.8z M444.5,221.6c5.5,0,10.6-4.4,10.6-8.3c0.2-1.8-1.1-3.4-2.9-3.5c0,0-0.1,0-0.1,0
	c0.4,0.5,0.6,1.1,0.5,1.7c0,2.9-4.4,6.2-9.3,6.2c-1.1-0.1-2.2,0.6-2.3,1.8c0,0,0,0,0,0.1C440.9,220.9,442.4,221.6,444.5,221.6
	L444.5,221.6z M443.3,215.5c-1,0.2-1.9-0.3-2.4-1.2c-0.5-1-0.3-2.5-1.2-3.2c0.8,0.2,1.7,0.3,2.6,0.3c2.4,0,4.7-1.6,6.5-1.6
	c0.7-0.1,1.4,0.5,1.5,1.2c0,0.1,0,0.2,0,0.3C450.3,213.6,445.5,215.5,443.3,215.5L443.3,215.5z"/>
<path class="st0" d="M324.2,257.3c1.8,0,1.4-11.1,4.4-11.1c0.7,0,0.9,0.7,0.9,1.6c0,2.5-1.2,6.2-1.2,8.2c0,1,0.3,1.4,0.8,1.4
	c1.3,0,3.5-12.2,5.7-12.2c0.7,0,1,0.7,1,1.4c0,2.5-3.3,9.9-3.3,12c0,0.3,0.1,0.6,0.3,0.6c1.4,0,4-5.7,4.9-8.6
	c0.5-1.5,1.1-2.3,1.7-2.3s1,0.6,1,1.8c0,2.9-2.7,9.6-5,14.2c-1.8,3.4-4.6,8.5-4.6,11.3c-0.1,1.9,0.8,3.6,2.3,4.7
	c-3.4-0.2-4.8-0.5-6.1-3.2c-5.7,11.3,10.5,10.2,5,20.3c-1-1.8-9-3.7-9-14.2c0-9.1,8-14.4,8-18.2c0-0.8-0.3-1.5-1-2
	c-1.8-1.5-1.8-2.7-3.2-2.7c-1,0-2.2,2.3-1,4.4c0.4,0.7,0.8,1.1,0.8,1.8c0,1.5-2.3,5.5-4,5.5s-2.9-4.1-2.9-10.7
	c0-5.9,1.3-11.7,3-11.7c0.5,0,0.6,0.3,0.6,0.8c0,0.7-0.2,2-0.2,4.4S323.6,257.3,324.2,257.3z"/>
<path class="st0" d="M337.7,272.9c2.3,0,4.1-1.6,4.1-5.3v-5.5c0-2,0.1-4.4,1.6-6.1c-0.1,0.7-0.2,1.4-0.1,2.1c0,4.6,2.5,7.7,2.5,12.2
	c0,1.6-0.5,2.5-1.8,2.5s-1.1-1.1-1.4-1.1s-0.5,0.7-0.5,1.4c0,1.6,1.3,2.9,2.9,2.9c0,0,0.1,0,0.1,0c2-0.1,3.5-1.8,3.5-3.8
	c0-4.8-3.8-10.1-3.8-15.2c0-1.7,0.4-3.4,1.1-4.9c0,10.6,9,18.3,9,22.7c0,1-0.8,1.8-1.7,1.8c0,0-0.1,0-0.1,0c-1,0-1.8-0.7-1.8-1.7
	c0,0,0,0,0,0c0-0.3-0.1-0.5-0.2-0.5c-0.9,0.5-1.3,1.5-1.3,2.5c0.1,2.2,1.9,3.9,4.1,3.9c2.6,0,4.7-2.2,4.7-4.8c0,0,0-0.1,0-0.1
	c0-5.6-10.9-14.1-10.9-23.1c0-2.1,0.5-4.1,1.4-5.9c-7,4.5-9.2,10.5-9.2,15.8c0,4.6-0.1,6.9-2.5,6.9c-1.2,0-1.6-1.1-2-1.1
	s-0.5,1-0.5,1.2C334.8,271.5,336.1,272.9,337.7,272.9z"/>
<path class="st0" d="M430,219.7c2.3,0,4.1-1.1,4.1-1.7c0-0.2-0.3-0.3-1-0.3c-1.6,0-3.2-0.2-4.7-0.5c-2.2-0.3-4-1.2-4.6-1.2
	c-0.2,0-0.3,0.1-0.4,0.3C423.5,217.6,426.1,219.7,430,219.7z M418.4,212.9c0.7-0.5,3.7,0.3,7.6-1.6c0.4-0.2,0.9-0.3,1.4-0.3
	c1.8,0,1.4,2.1,3.1,2.1c1.3,0,3-1.1,4-1.1c1.6,0,3.9,5,3.9,7.4c0,2.7-4.1,4.4-9,4.4c-7.1,0-11.3-6.1-11.3-10.2
	C418,213.3,418.2,213,418.4,212.9L418.4,212.9z"/>
<path class="st0" d="M338.9,293c-1.8,0.4-4.6,3.2-4.6,7.6c0,5.2,5.6,13.2,14.8,13.2c7.8,0,9.7-5.4,9.7-9c0-8-4.9-13.7-11.4-13.7
	c-3.6-0.1-6.6,2.7-6.7,6.2c0,0,0,0.1,0,0.1c0,4.9,3.9,8.8,8.8,8.8c0.1,0,0.1,0,0.2,0c2.5,0.1,4.6-1.7,4.7-4.2c0-0.1,0-0.3,0-0.4
	c0-2.4-2.2-5.7-5.4-5.7c-0.8-0.1-1.6,0.6-1.6,1.4c0,0.1,0,0.1,0,0.2c0,1.3,1.8,2.5,4,2.5c0.4,0,0.8-0.1,1.2-0.2
	c0.1,0.1,0.1,0.4,0.1,0.6c0,1.2-1.2,2-3,2c-2.9,0.1-5.3-2.2-5.3-5.1c0,0,0-0.1,0-0.1c0-1.9,1.6-3.3,4-3.3c4.7,0,7.6,4.2,7.6,8.4
	c0,3.8-2,5.9-6.4,5.9C341.1,308.4,337,300.8,338.9,293z"/>
<path class="st0" d="M395.5,313.5c0,1.2,0.9,2.1,2.1,2.1c1.2,0,2.1-0.9,2.1-2.1c0-1.2-0.9-2.1-2.1-2.1c0,0,0,0,0,0
	C396.5,311.4,395.6,312.4,395.5,313.5z M399.6,324.2c1.1,0,2.1-0.1,3.2-0.2c0.8,0,0.8,0.5,0.8,0.8c0,1.2-2.6,2.6-7.2,2.6
	c-2.7,0-4.4-1.4-4.9-3.1c-3.2,2-6.9,3.2-10.7,3.3c-10.9,0-13.6-4.7-17.1-6.3c-2.6-1.2-6.6,1.1-12.2-5.1c0.8,0.1,1.7,0.2,2.5,0.2
	c4.9,0,7.5-2.4,7.5-6.2c0-0.5-0.1-1-0.1-1.5c3,1.5,5.1,4.3,5.7,7.6c0.1,0.5,2.3,1,3.7,1c1.9,0,4.4-0.8,4.7-4
	c6.4-0.5,10.7-4.3,11.6-9.1c2.2,0.8,4.9,2.8,5.5,3.9c1-0.4,2.1-0.5,3.2-0.5c2,0.1,4,0.4,5.9,1c0.1-0.7,0.2-1.6,1.3-1.6
	c1.6,0,1.2,1.8,1.7,2.8c0.3,0.5,1.6,0.8,1.6,1.9c0,0.7-0.6,1.4-1.3,1.4c0,0,0,0,0,0c-0.2,0-0.4-0.1-0.6-0.1
	c-1.1,0.4-1.1,8.1-5.6,8.1c-3.3,0-6.4-2.7-7.6-6.1c-0.2-0.9-1-1.6-1.9-1.6c-0.8,0-1.3,0.1-2.3,1.3c-3.5,3.8-8.4,5.9-13.6,5.9
	c-1.8,0-3.3-0.1-3.6-0.1s-0.2,0.1-0.2,0.1c0,0.3,1.8,1.8,5.7,1.8c9.4,0,11.7-5.3,13.2-5.3c0.5,0,1,0.3,1.2,0.8
	C391.4,321.8,395.4,324.3,399.6,324.2z"/>
<path class="st0" d="M431.9,290.3c-1.1,0-7.3,8.3-11.3,8.3c-1,0-1.8-1.8-1.8-3.2c0-0.8,0.5-1.3,2.2-1.6c9.1-2,7.1-9,15-9
	c4.3,0,9.1,2.9,9.1,9.6c0,7-10,15.8-11.5,15.8c-1.2,0-2.5-1.8-2.5-2.9c0-0.4,0.1-0.8,1.2-1.3c5.1-2,8.1-6.7,8.1-9.1
	c0-0.6-0.4-1-0.9-1.1c0,0-0.1,0-0.1,0c-0.9,0-4.8,8.8-9.1,8.8c-3,0-6-2.7-6-4c0-2.1,8.6-6.1,8.6-9.1
	C432.9,290.3,432.4,290.3,431.9,290.3z M437.7,287c-0.8,0-1.6,0.6-1.6,2c0.1,1.3,0.8,2.4,1.9,2.9c0.5,0.3,1,0.4,1.6,0.4
	c1.6,0,2.8-0.4,2.8-1.7C442.4,289,440,287,437.7,287L437.7,287z"/>
<path class="st0" d="M338.2,225.3c0,1.2,0.9,2.1,2.1,2.1c1.2,0,2.1-0.9,2.1-2.1c0-1.2-0.9-2.1-2.1-2.1l0,0
	C339.2,223.2,338.2,224.1,338.2,225.3z M335.5,220.5c0,1.2,0.9,2.1,2.1,2.1c1.2,0,2.1-0.9,2.1-2.1c0-1.2-0.9-2.1-2.1-2.1l0,0
	C336.4,218.4,335.5,219.3,335.5,220.5z M333.5,235.1c-1.2,0.3-3.8,1.8-3.8,4.5c0,1.7,1.4,3.1,3.1,3.1c0.1,0,0.1,0,0.2,0
	c0.7,0.1,1.4-0.1,2-0.5c-1.3-1.2-2.1-2.9-2-4.6C333.1,236.7,333.3,235.9,333.5,235.1z M320.5,235.9c-0.1,0.3-0.1,0.5-0.1,0.8
	c0,2.5,1.3,3.9,3.1,3.9c1.7-0.2,3.3-1.1,4.2-2.5c-0.6,0.1-1.3,0.2-1.9,0.1C323.9,238.1,321.7,237.6,320.5,235.9L320.5,235.9z
	 M318.6,240.6c0,4,1.2,5.9,3.4,5.9c1.7,0,4-1.2,6.7-3.5c-1.7,0.5-3.4,0.7-5.1,0.8C321.7,243.8,320.2,243,318.6,240.6L318.6,240.6z
	 M332.4,219.3c0.3-1,0.5-2,0.5-3.1c0-2.5-1.2-6.4-4.8-6.4c-2,0-3.5,1.6-3.6,3.5c0,0,0,0.1,0,0.1
	C324.5,217.6,328.8,219.3,332.4,219.3L332.4,219.3z M327.9,232.7c-1.8,0-3.7-2.2-3.7-4.2c0-1.1,0.8-2.4,1.4-2.4
	c0.2,0,0.3,0.1,0.3,0.6c0.3,2.1,1.7,4,3.6,4.9c0.1,0.1,0.3,0.1,0.3,0.3C329.9,232.2,328.8,232.7,327.9,232.7L327.9,232.7z
	 M332.8,226.1c0.3,0.5,1.4,1.1,1.4,1.5c0,0.8-0.4,1.7-1.3,1.7c-1.9,0-3.4-2.8-3.4-4.4c0-1,0.6-1.1,1.4-1.1c0.3,0,0.6,0.1,0.8,0.2
	C332.2,224.3,332.2,225.4,332.8,226.1L332.8,226.1z M320.3,232.8c-0.1,0.2-0.1,0.4-0.1,0.6c0.1,0.5,0.5,0.9,1,1
	c0.3,0,0.6-0.1,0.9-0.1c1.3,0,2.7,0.9,4.8,0.9c1.6-0.1,3.1-0.5,4.5-1.3c3.8-1.9,5.3-6.7,5.3-7.4c0-1-0.8-0.9-1.5-1.9
	s-0.4-1.8-0.8-2.2s-1-0.3-2-0.3c-0.4-0.1-0.8-0.1-1.2-0.1c-2.2-0.1-4.3,0.5-6.1,1.7C320.4,226.7,321,231.6,320.3,232.8L320.3,232.8z
	 M338,230.7c-1.5,1.7-2.3,3.9-2.4,6.1c0,2.9,1.8,5.3,4.5,5.3s3.8-2.2,3.8-4.5C343.9,233.9,340.6,231.5,338,230.7z M326.6,220.4
	c-1,0.7-2.2,1.1-3.5,1.2c-2.2,0.1-4-1.7-4.1-3.9c0-0.1,0-0.1,0-0.2c0-1.8,1.1-3.5,2.8-4.2c-0.1,0.3-0.1,0.6-0.1,0.9
	C321.6,217.1,323.7,219.8,326.6,220.4L326.6,220.4z"/>
<path class="st0" d="M420.5,238.1c0,1.2,1,2.3,2.2,2.3c1.2,0,2.3-1,2.3-2.2c0-1.2-1-2.3-2.2-2.3c0,0,0,0,0,0
	C421.5,235.9,420.5,236.9,420.5,238.1z M420.6,244.8c0,1.4,1.1,2.5,2.5,2.5s2.5-1.1,2.5-2.5s-1.1-2.5-2.5-2.5c0,0,0,0,0,0
	C421.7,242.3,420.6,243.4,420.6,244.8z M413,249.4c0,2,1.7,3.7,3.7,3.7s3.7-1.7,3.7-3.7s-1.7-3.7-3.7-3.7
	C414.7,245.7,413,247.3,413,249.4C413,249.3,413,249.4,413,249.4z M415,241.9c0,1.2,0.9,2.1,2.1,2.1s2.1-0.9,2.1-2.1
	c0-1.2-0.9-2.1-2.1-2.1l0,0C415.9,239.7,415,240.6,415,241.9C414.9,241.8,414.9,241.8,415,241.9L415,241.9z M408,246.1
	c0,1.2,0.9,2.1,2.1,2.1c1.2,0,2.1-0.9,2.1-2.1c0-1.2-0.9-2.1-2.1-2.1c0,0,0,0,0,0C408.9,244,408,244.9,408,246.1z M413.5,233.7
	c0,1.9,1.5,3.4,3.4,3.4s3.4-1.5,3.4-3.4c0-1.9-1.5-3.4-3.4-3.4C415,230.2,413.4,231.8,413.5,233.7
	C413.4,233.7,413.4,233.7,413.5,233.7L413.5,233.7z M417.5,227.1c0,1.1,0.9,2,2,1.9c1.1,0,2-0.9,1.9-2.1c0-1.1-0.9-1.9-1.9-1.9
	C418.4,225,417.4,225.9,417.5,227.1C417.4,227.1,417.4,227.1,417.5,227.1L417.5,227.1z M407.8,232.2c0,1.1,0.9,2,2,2s2-0.9,2-2
	s-0.9-2-2-2C408.7,230.2,407.8,231.1,407.8,232.2C407.8,232.2,407.8,232.2,407.8,232.2L407.8,232.2z M407.6,239.1
	c0,1.8,1.5,3.2,3.3,3.2c1.8,0,3.2-1.5,3.2-3.3c0-1.8-1.5-3.2-3.3-3.2c-1.8,0-3.2,1.4-3.3,3.1C407.5,239,407.5,239.1,407.6,239.1
	L407.6,239.1z M400.9,242.5c0,1.7,1.3,3,3,3s3-1.3,3-3s-1.3-3-3-3C402.2,239.5,400.8,240.8,400.9,242.5
	C400.8,242.5,400.8,242.5,400.9,242.5L400.9,242.5z M402.7,235c0,1.2,0.9,2.1,2.1,2.1s2.1-0.9,2.1-2.1c0-1.2-0.9-2.1-2.1-2.1l0,0
	C403.7,232.9,402.7,233.8,402.7,235C402.6,235,402.6,235,402.7,235L402.7,235z M421.3,251.4c0-1.1,0.9-2,2-2c1.1,0,2,0.8,2,1.9
	c0,0,0,0,0,0.1c0,1.1-0.9,2-2,2S421.4,252.5,421.3,251.4L421.3,251.4z"/>
<path class="st0" d="M422.7,312.7c0.3,0,0.6,0.1,0.6,1.1c-0.1,1.7-1,3.2-2.5,4c-1.7,1.1-3.7,1.7-5.8,1.7c0.4-1.3,0.7-2.6,0.8-3.9
	c0-0.4-0.1-0.8-0.1-1.2h0.7C418.6,314.4,420.8,313.8,422.7,312.7z M423.1,307.4c0.4-0.4,0.6-1,0.5-1.6v-1.2c0-1.6-2.3-2.5-5.5-2.5
	c-3.9,0-5.9,1.8-5.9,2.5v2.5c0,1,2.3,2,5.3,2C419.5,309.2,421.5,308.6,423.1,307.4z M425.9,308c-2.8,2.3-6.4,3.5-10,3.5
	c-1.6,0-3.1-0.3-4.6-0.9c-0.5,0-1.1,0.5-1.7,1.2c-1.8,2-2.8,4.6-2.9,7.3c0,2.1,1.6,4.2,4.7,4.2c10,0,17.4-6.2,17.4-11.3
	C428.8,309.2,427.1,308,425.9,308L425.9,308z"/>
<path class="st0" d="M427.8,263.2c0,1.3,0.4,2.9,1.8,2.9c1.1,0,2-1.7,2-3.5c0-2.1-0.3-3.8-0.3-4.6c0-0.3,0.1-0.5,0.3-0.5
	c0.8,0.1,1.6,2.3,2.4,2.3s2.4-1.8,3-1.8c0.1,0,0.2,0.2,0.2,0.3c0,0.8-1.2,2.6-1.2,3.3s3.1,0.7,3.1,1.2c0,0.8-3.2,0.8-4.8,1.5
	s-2.4,1.4-2.4,2.5s1.1,1.3,2.6,1.3c3.5,0,6.1-1.9,6.8-1.9c0.1,0,0.3,0.1,0.3,0.3c0,0.5-1.9,2.3-1.9,3.1s3.3,2,3.3,2.5
	c-0.1,0.1-0.3,0.2-0.6,0.2c-0.6,0-1.5-0.1-2.2-0.1c-0.4,0-0.8,0.1-1,0.3c-0.3,0.4,0.1,3.3-0.6,3.3s-2.5-6.3-6.6-6.3
	c-0.6,0-1,0.5-1,1.3c0,2.1,2,4.6,4,5.7c0.9,0.6,2.4,1.2,2.4,1.5c0,0.6-3.4,0.1-3.4,1.1s0.4,2.4,0.4,3.3c0,0.3-0.1,0.6-0.3,0.6
	c-0.6,0-2.2-2.9-2.9-2.9s-2,1.8-2.6,1.8c-0.2,0-0.3-0.2-0.3-0.3c0,0,0,0,0,0c0-1.2,2-4,2-6.7c0-1.3-0.1-4-1.7-4c-1.3,0-2.7,2-3.4,4
	c-0.3,1.2-0.1,5.7-1,5.7s-0.6-3-1.6-3c-0.8,0-2.5,1.4-3.1,1.4c-0.1,0-0.2-0.1-0.2-0.1c0-0.6,1.6-2.7,1.6-3.1c0-0.8-3.5-0.9-3.5-1.6
	c0-0.3,1.4-0.6,2.7-0.8c2.7-0.5,6.7-2.5,6.7-5.2c0-3.1-3-4.4-4.9-5.7c-1-0.6-2.1-1.2-2.1-1.6s1.3-0.4,1.8-0.4c0.8,0,1.6-0.1,1.6-0.7
	s-0.1-1.4-0.1-2.2c0-0.5,0.1-1,0.3-1c0.8,0,1.9,2.6,2.5,2.6c0.8,0,2-2.1,2.8-2.1c0.3,0,0.3,0.1,0.3,0.6
	C428.8,259.1,427.8,261.2,427.8,263.2z M402.4,247.6c0.6,4.5,6.7,2.2,6.7,7.7c0,0.8-0.2,2-0.2,3s0.1,2.2,1,2.2s1.1-0.6,1.1-1.5
	s-0.2-1.9-0.2-2.5c-0.1-1.2,0.7-2.2,1.9-2.3c0.1,0,0.1,0,0.2,0c2,0,3.5,2,6.6,2c-0.7,3.4-7.7,2.5-7.7,6.2c0,1.8,1.8,2.3,3.1,2.3
	s1.5-0.1,1.5-1.1c0-0.5-0.1-1.1-0.1-1.5c0-0.2,0.2-0.4,0.4-0.4c0,0,0,0,0,0c1.2,0,6.9,4.4,6.9,5.7s-6.1,2.5-7.9,2.5
	c-0.5,0-0.6-0.3-0.6-0.6s0.9-1.5,0.9-2.1s-0.8-0.8-2.9-0.8c-1,0-1.8,0.1-1.8,0.9c0,1.4,2.3,3.2,2.3,4.5c0,1.1-0.6,1.7-2.3,1.7
	c-1.4,0-3.6-1.1-3.6-3c0-1.5,1.5-3,1.5-3.9c0-0.4-0.4-0.7-0.8-0.7c0,0,0,0,0,0c-2,0-2.5,5.2-9.5,5.8c1.4-1.1,2.1-2.7,2-4.4
	c0-1.1-0.3-2-0.3-3.3c0-1.6,0.8-2.4,1.9-2.4c2,0,2.9,2.8,4.2,2.8c0.8,0,1.5-0.7,1.4-1.6c0-4-7.8-3.5-7.8-9.1
	C400.6,251.5,401.3,249.4,402.4,247.6z"/>
<path class="st0" d="M412.5,282.2c0,0.7,0.5,1.3,1.2,1.3c0,0,0.1,0,0.1,0c0.8-0.1,1.4-0.7,1.4-1.6c0,0,0,0,0,0c0-1.1-1-2.7-2-2.7
	c-0.4,0-0.3,0.6-0.3,1.4C412.7,281.2,412.5,281.7,412.5,282.2z M409.7,275.1c5.6,1.1,8.6,5.2,8.6,9.2c0,2.7-1.7,5.2-4.7,5.2
	c-2.5,0.1-4.6-1.8-4.7-4.3c0-0.2,0-0.4,0-0.5c0-2.2,1.8-4.6,1.8-6.9C410.7,276.8,410.3,275.8,409.7,275.1z M402.7,284.2
	c0.4,0.4,0.7,1,0.7,1.6c0,0.8-0.3,1.6-0.3,2.5c0,1.3,1,2.4,2.2,2.4c0,0,0,0,0.1,0c1.4,0,2.5-1,2.5-2.4c0,0,0-0.1,0-0.1
	C407.8,286.2,405.7,284.2,402.7,284.2L402.7,284.2z M420.3,280.8c0.3,0.5,0.5,1.1,0.5,1.7c0,1.5-1,2.9-1,4.4c0,1.8,1.4,3.2,3.2,3.2
	c0.1,0,0.1,0,0.2,0c2,0,3.7-1.7,3.7-3.7c0,0,0-0.1,0-0.1C426.8,283.4,424.2,281,420.3,280.8L420.3,280.8z M403.9,278
	c2.5,0.3,3.1,1.2,3.1,1.9c0,1.2-1.1,1.6-2.1,1.6c-0.8,0-1.6-0.1-2.5-0.1c-1.2-0.1-2.5,0.4-3.3,1.4c0.7,0.1,1.7,0.6,1.7,1.6
	c0,3.1-8.6,0.5-8.6,8.5c0,4.2,4.4,8.8,11,8.8c3.4,0,5.6-1.1,5.6-2.4c0-1-1.9-0.3-1.9-1.2c0-0.3,0.6-1.1,0.6-1.6
	c0-0.3-0.2-0.8-0.6-0.8c-1,0-2.8,1.6-6.4,1.6c-2.9,0-5.7-1.6-5.7-3.9c0-0.5,0.2-0.8,0.5-0.8s0.8,0.2,1.1,0.2s0.3-0.2,0.3-0.8
	s0-2.2,1-2.2s2.9,3.8,10.3,3.8c2.5,0,7.2-0.5,9-2c-0.1,7.6-6.5,13.7-14.1,13.6c0,0-0.1,0-0.1,0c-10,0-15.3-8-15.3-15.4
	c0-8.7,7.1-15.7,15.7-15.7c0,0,0,0,0.1,0c2.3,0,4.3,0.8,4.3,1.8C407.6,277.1,404.1,276.3,403.9,278z"/>
<path class="st0" d="M369.5,217.1c3.5,0,5.1,3,5.1,6.4c0,1.5-0.4,3.7-1.1,3.7s-0.6-1.2-0.7-2.3c-0.1-1.4-0.4-1.8-0.8-1.8
	c-0.9,0-1.5,2.1-1.5,4.1c0,1.2,0.2,2.6,1.2,2.6c0.5,0,1-0.2,1.4-0.6c-0.1,2.5-2.1,4.5-4.6,4.6c-4.7,0-6.4-5.5-7-8.7
	c-2.8,3-5.5,5.2-10.1,5.2c-3.3,0.2-6.1-2.3-6.3-5.6c0-0.2,0-0.4,0-0.6c0-0.9,0.3-3.3,1.4-3.3c1.3,0,0.1,4.4,2.8,4.4
	c0.6,0,1.8-0.6,2.5-2.3c0.4-1,0.6-2.1,0.6-3.1c0-1.4-0.3-2.3-1.4-2.3c-0.9,0.1-1.7,0.5-2.4,1.1c1-3.5,4.2-5.8,7.8-5.8
	c4.2,0,6.4,3.8,6.4,7.9c0,0.6-0.1,1.2-0.1,1.8C364.2,219.4,366.7,217.1,369.5,217.1z M365.4,223.4c0-0.9-0.2-1.1-0.4-1.1
	c-0.5,0-1.1,0.6-2,2c0.1,1.9,0.4,2.8,1,2.8S365.4,225.3,365.4,223.4z M358.1,225.6c0.6,0,1.4-0.6,2.7-2.2c0.1-0.7,0.2-1.4,0.1-2.1
	c0-1.1-0.4-2.3-1.1-2.3c-1.6,0-2.4,4.2-2.4,5.4C357.4,225.1,357.7,225.6,358.1,225.6z M366.7,230.3c1.3,0,2.8-5.1,2.8-8.3
	c0-0.7-0.1-1.4-0.4-1.4c-1.1,0-3,5.2-3,8.1C366.1,229.8,366.4,230.3,366.7,230.3z M353.7,227.4c1.8,0,3.9-9.8,3.9-11.5
	c0-0.4-0.1-0.8-0.5-0.8c-1.6,0-4,9.4-4,11.4C353.1,227,353.2,227.4,353.7,227.4L353.7,227.4z"/>
<path class="st0" d="M359.5,231.5c-2.3,0-2.4,2.8-2.4,8.3c-1.7-3.7-4.5-7.6-7.9-7.6c-2.2,0-3.1,1.5-3.1,4.1c0,0.6,0.1,1.2,0.1,1.8
	c0.3-0.9,1.2-1.4,2.2-1.3c2.3,0,5,1.8,6.9,4.2c-1.9-0.4-3.9-0.6-5.8-0.8c-1,0-1.9,0.1-2.8,0.5c-2.3,1.3-3.7,3.8-3.6,6.4
	c0,0.6,0.1,1.2,0.1,1.8c1.9-4.2,6.8-6,10-6c0.5,0,1,0,1.5,0.1c-1.6,1.5-2,4.1-2.1,5.9c-0.1,0.8-0.3,0.9-1,0.9c0,1.8,1.4,4.4,1.4,5.7
	c0,0.4-0.2,0.8-0.5,1c0,2.3,2.3,4,2.3,5.5c0,0.3-0.1,0.6-0.3,0.8c0.1,1,2.7,2.6,3.1,3.3c0.4,1,0.9,1.2,1.2,1.2c0.9,0,2.3-1.1,2.3-2
	c0-0.3-0.2-0.6-0.5-0.8c-1-0.9-1.6-2.1-2-3.4c-0.5,0-0.9-0.3-1-0.8c-0.3-1.1-0.3-3.1-0.8-4.4c-0.7-0.1-1-0.4-1-1.8
	c0-0.7,0.4-3.4,0.4-4.4c-0.4,0-0.7-0.3-0.8-0.7c0,0,0-0.1,0-0.1c0-1.7,1.7-3,2.2-5.2c3,2.2,3.8,4.5,3.8,6.5c0,1-0.1,2-0.3,3
	c2.2-1.1,5.6-2.8,5.6-6.1c0-2-0.9-4.2-6.9-5c2-0.7,4.1-1.1,6.1-1.1c3.4,0,5.4,1.1,5.8,3.5c0.7-1,1.1-2.2,1.2-3.4
	c0-2.6-2.2-4.3-5-4.3c-3.3,0-6.1,1.7-9.2,3.8c1.4-2.9,2.3-4.6,4-4.6c0.3,0,0.6,0.1,0.8,0.1C363.2,233.7,360.7,231.5,359.5,231.5z"/>
<path class="st0" d="M449.2,269.9c2.7,0,4.8,3.5,4.8,7.5c-0.1,4.7-2.2,9.1-5.7,12.2c-0.1-7.2-8.9-4.9-8.9-10.1
	c-0.1-2,1.4-3.6,3.3-3.8c0.1,0,0.2,0,0.2,0c1.5-0.1,2.9,0.4,4,1.4c-0.9-0.9-1.5-2.1-1.4-3.4c-0.1-2,1.3-3.7,3.3-3.9
	C449,269.9,449.1,269.8,449.2,269.9z"/>
<path class="st0" d="M409.7,215.4c-0.4-0.7-2-1.1-2.7-1.1c-2-0.1-3.7,1.2-4.2,3.1c-0.2-0.6-0.3-1.2-0.3-1.9c-0.1-2.8,2.2-5.2,5-5.2
	c0.1,0,0.3,0,0.4,0c3.4,0,4.7,1.8,5.2,1.8s1.1-0.6,1.5-0.6c0.6,0,0.6,0.9,0.6,1.6c0,2.1-1,5.8-3.3,7.2c-0.6-1.1-1.5-2-2.7-2.5
	c-0.3-0.1-0.5-0.5-0.5-0.8C408.6,216.3,409,215.7,409.7,215.4z M401.7,219.3c1,1.2,2.5,1.9,4.1,1.9c0.6,0,1.3-0.1,1.6-0.1
	s0.8,0.2,0.8,0.6c-0.1,0.8-0.5,1.5-1.2,2c0.7,0.3,1.4,0.4,2,0.3c3.5,0.1,6.4-2.6,6.5-6c0-0.2,0-0.4,0-0.7c0.6,1,1,2.2,1,3.4
	c0,5.8-4.2,8.1-8.2,8.1c-1.4,0-2.8-0.3-4.2-0.8c-1,0-1,2.1-1.6,2c-1.2-0.2-2.3-2.9-2.3-5.8C400.2,222.4,400.7,220.7,401.7,219.3
	L401.7,219.3z"/>
<path class="st0" d="M356.1,185.4c0-0.4-1.6-0.6-3.8-0.6c-3.5,0-3,2.9-5.7,2.9s-2-3-5.6-3c-2.1,0-4.1,0.4-4.1,0.8
	c0,0.6,2.5,0.4,2.5,2.1s-5.4,2.4-5.4,3.5c0,0.3,0.4,0.6,1,0.6c1.2,0,3-0.6,4.4-0.6c0.8,0,1.4,0.1,1.4,0.8c0,1.4-2.9,3.8-2.9,4.8
	c0,0.3,0.3,0.4,0.5,0.4c1.1,0,2.9-2.7,4.6-2.7c2.8,0,1,6,2.5,6s0.9-5.9,3.2-5.9c1.9,0,3.3,4.1,4.5,4.1c0.3,0,0.6-0.3,0.6-0.6
	c0-1.1-1.6-3.4-1.6-4.9c0-0.7,0.6-1.3,1.3-1.4c0.1,0,0.1,0,0.2,0c1.2,0,2.9,0.8,3.8,0.8c0.3,0,0.6-0.1,0.6-0.5
	c0-1.3-4.7-2.7-4.7-4.3C353.5,186.1,356.1,186.1,356.1,185.4z M368.6,190.8c0,1,3.4,3,4.9,3c0.9,0,1.2-1.2,1.2-2.5
	c0-1.6-0.7-1.6-2-1.6C370.8,189.7,368.6,190.2,368.6,190.8L368.6,190.8z M374.1,201.4c0-3.2-8.7-9-8.7-11.5c0-0.3,0.2-0.5,0.4-0.7
	c1.5-1.6,7.6-2.7,7.6-4c0-0.7-1.3-0.7-1.9-0.7c-5,0-12.2,1.8-12.2,3.6s6.5,6.2,6.5,8.4c0,0.6-0.4,0.8-1,0.8c-1.8,0-5.7-2.2-7.6-2.2
	c-0.8,0-1.2,0.6-1.2,1.4c0,2.5,3,7.4,3,8.8c0,0.2-0.1,0.3-0.3,0.3c0,0,0,0,0,0c-1,0-5.5-5.3-7.1-5.3c-0.6,0-0.6,0.8-0.6,2v1.8
	c0,1.2-0.1,2-0.6,2c-1.4,0-2-3.9-3.3-3.9s-1.6,6.9-3,6.9c-1.6,0-0.2-7.6-1.7-7.6s-3.5,5.1-4.7,5.1c-0.4,0-0.5-0.4-0.5-0.8
	c0-1.6,0.9-4,0.9-5.5c0-0.8-0.2-1.2-0.8-1.2c-1.6,0-5.3,2.7-6.7,2.7c-0.2,0-0.5-0.1-0.5-0.3c0-1.3,5.8-5.3,5.8-7.2s-8-0.6-8-2.6
	c0-1.7,5.7-3.5,5.7-5.2s-6.8-2.2-9.4-2.2c-3.1,0-4.9,0.3-4.9,1.3c0,1.4,7.2,1.9,7.2,3s-7.4,4.3-7.4,6.1c0,1.6,10.5,0.1,10.5,1.8
	c0,1.8-9.1,9.6-9.1,12.2c0,0.6,0.4,0.8,1,0.8c2.8,0,10-5.3,12-5.3c0.7,0,0.8,0.8,0.8,1.6c0,1.4-0.5,3.5-0.5,5c0,1.2,0.3,2.1,1.4,2.1
	c2,0,3.8-3.3,5.1-3.3c1.7,0,0.7,9.8,3.3,9.8c2.2,0,3.1-10.6,4.4-10.6s2.5,3.1,3.8,3.1c1.6,0,0.8-5.4,2.5-5.4s7.2,6.4,9.6,6.4
	c0.8,0,1-0.6,1-1.4c0-2.8-4-9.2-4-11.3c0-0.5,0.1-0.7,0.8-0.7c2,0,8.1,2.9,11,2.9C373.6,202.6,374.1,202.1,374.1,201.4L374.1,201.4z
	 M325.5,198.3c0,1.1-4,4.6-5.5,4.6c-0.5,0-0.7-0.6-0.7-1.2c0-1.1,0.4-2.2,1.1-3c1-0.7,2.2-1,3.5-1
	C324.7,197.7,325.5,197.8,325.5,198.3L325.5,198.3z M364.6,203.8c0,1.8,6.7,11,7.9,11s1.9-1.8,1.9-3.5c0-0.4-0.1-0.8-0.4-1.2
	c-1-1.4-7.7-6.7-9.2-6.7C364.8,203.4,364.6,203.6,364.6,203.8z"/>
<path class="st0" d="M450.2,187.6c0,0.7,0.6,1.3,1.3,1.3c0,0,0,0,0,0c0.7,0,1.3-0.6,1.3-1.4c0-0.7-0.6-1.3-1.4-1.3
	C450.7,186.3,450.1,186.9,450.2,187.6C450.2,187.6,450.2,187.6,450.2,187.6z M441.5,199.4c0-3.8-9.1-4.7-9.1-5.6
	c0-0.7,5-1.8,7.6-1.9c-4-5.1-9.7-4.6-9.7-5.5c0-0.6,4.2-1.6,8.2-1.6c3.3,0,6.4,0.8,6.4,3.3c0,1.4-1.1,2.8-1.1,5
	c-0.1,1.1,0.7,2.1,1.8,2.2c0.1,0,0.2,0,0.3,0c1.6,0,2-1.8,2-3.6c0-1.6-0.3-2.7-0.3-3.5c-0.1-1.9,1.4-3.6,3.3-3.7c0.1,0,0.3,0,0.4,0
	c1.8,0,2.2,0.8,4.9,0.8c-1.1,0.7-1.9,1.8-2,3.1c0,2.2,1.4,3.8,1.4,8.3c0,8.4-7.9,11.4-17.5,11.4c-2.8,0-5.5-0.2-8.3-0.6
	c-0.4-0.1-0.5-0.1-0.5-0.4c0-0.7,3.8-1.1,3.8-4.5c-0.1-1-0.2-2.1-0.4-3.1c0-0.2,0.2-0.4,0.4-0.4c0,0,0,0,0,0c0.8,0,2.4,3.1,5.4,3.1
	C439.5,202.1,441.5,201.9,441.5,199.4z M450.5,194c0,4.7-3.5,8.3-9.7,9.4c0.7,0.1,1.3,0.1,2,0.1c7.3,0,10-3.3,10-6.1
	C452.8,195.9,451.9,194.5,450.5,194L450.5,194z"/>
<path class="st0" d="M446.8,262.7c0.9-2.6,2.1-5.1,3.7-7.4c-1.8-0.9-6.4-2.8-6.4-5.9c0-3.7,4.6-6.6,5.5-6.6c0.4,0,0.5,0.3,0.5,1.1
	c0,1.9-0.9,5-0.9,6.7c0,1.5,1,2.9,1.8,2.9s3.4-3.2,3.4-6.4c0.1-3.8-2.7-7-6.5-7.4c-1.4,0-4,2.3-10.2,2.3
	c-11.5,0-14.1-11.3-14.1-16.3c0-0.2,0.1-0.3,0.1-0.3c1.5,1,3.2,1.5,5,1.4c1.8,0,3.5-0.5,6.3-0.5c6.4,0,9.2,4.4,13.2,10
	c2.4,1.5,8.1,3.9,8.1,10.6c0,5.9-6.4,9.3-7.9,15.6c2.5-0.3,3.9-4.6,6.4-4.6c1.3,0,1.9,1,1.9,2.6c-0.2,3.1-1.6,6-3.9,8.1
	c0.1-0.3,0.1-0.5,0.1-0.8c0-1.5-0.6-3.6-2.3-3.6c-2.7,0-3.5,2.9-5,5.3c-1.6-5.5-3.6-10.3-7.4-13.3s-10.3-1.4-10.3-6.9
	c0-1.5,1-3.6,1-5.3c0-0.6-0.1-1.1-0.4-1.6c5.1,1.9,3.3,5.3,6.5,8.8c2,2.2,7.4,4.4,10.5,13.6c0.1-0.5,0.1-0.9,0.1-1.4
	c0-7.9-10.5-15.6-11.3-18.8c6.1,0.7,7.1,2.2,10,10.2C444.9,256.5,446.8,260.6,446.8,262.7z M445.5,236.8c0-1.1-2.8-1.2-3.1-4.4
	c-0.1-0.5-0.2-1.3-0.8-1.3c-1,0-0.2,2.9-1.3,2.9c-2.5,0-3.3-4.8-4.2-4.8c-0.2,0-0.5,0.1-0.5,0.8s0.1,1,0.1,1.6s-0.1,1.2-0.8,1.2
	c-1.4,0-2.7-3.3-4-3.3c-0.3,0-0.5,0.1-0.5,0.4c0,0.6,1.1,1.8,1.1,2.4c0,1.3-3.5,0.6-3.5,1.6c0,0.5,0.5,0.6,1.1,0.6
	c1.1,0,2.9-0.5,3.8-0.5c0.5,0,1.4,0.1,1.4,0.8s-1.9,1.7-1.9,2.4c0,0.3,0.3,0.5,0.6,0.5c1.4,0,4-2.5,5.8-2.5c0.3,0,1.1,0.1,1.1,0.6
	c0,0.7-1.8,1.9-1.8,2.9c0,0.3,0.1,0.6,0.5,0.6c1,0,2.2-2.5,4-2.5c0.7,0,1.7,0.3,2.2,0.3c0.2,0.1,0.5,0,0.6-0.2
	C445.4,236.9,445.4,236.9,445.5,236.8L445.5,236.8z"/>
<path class="st0" d="M405.8,204.9c0.9,0,1,2.1,1.2,3.3c0.1,0.6,0.2,0.7,0.5,0.7c0.6,0,1.6-2.5,2.3-2.5c1,0,3.8,2.8,8.3,2.8
	c6.4,0,12.5-4.5,12.5-12.5c0-7.7-5.5-12.2-13-12.2c-3.5,0-6.2,1.8-7.6,1.8c-0.8,0.1-2.1-2.1-2.7-2.1c-0.3,0-0.5,0.6-0.5,1.4
	c0,0.6,0,2.5-0.6,2.5c-1.3,0-6.2-3.7-6.2-2.3c0,1.2,3.3,5,3.3,5.9s-3.3,1.9-3.3,2.5c0,1.2,3.5,1.4,3.5,2.9s-3.6,2.7-3.6,3.8
	c0,0.9,3.6,0.3,3.6,1.4s-2.7,4.9-2.7,5.9c0,0.3,0.1,0.3,0.3,0.3C402,208.4,405,204.9,405.8,204.9z M407.3,196.2c0-0.6-2-1.7-2-2.3
	c0-0.1,0.1-0.1,0.3-0.1c0.6,0,1.6,0.2,2.4,0.2s0.8-3,1.3-3s1,2.8,1.6,2.8s2-0.8,2.5-0.8c0.1,0,0.2,0.1,0.2,0.1
	c0,0.3-1.4,1.8-1.4,2.3s3,1.1,3,1.5s-3.1,0.5-3.1,0.9s1.1,1.9,1.1,2.3c0,0.1-0.1,0.1-0.1,0.1c-0.4,0-2-0.8-2.5-0.8s-1.5,2.2-2,2.2
	c-0.1,0-0.3-0.2-0.3-0.5l-0.1-2.1c0-0.2-0.1-0.4-0.3-0.4c-0.6,0-1.8-0.1-2.2-0.1s-0.3-0.1-0.3-0.1
	C405.2,198.1,407.3,196.6,407.3,196.2z M417.7,206.3c-3.8,0-6.2-1.9-6.2-2.8c0-0.4,0.3-0.8,0.7-0.8c0,0,0,0,0,0
	c1.2,0,3.8,1.8,4.6,1.8c0.2,0,0.3-0.1,0.3-0.4c0-0.9-0.9-2.5-0.9-3.3c0-0.2,0.1-0.3,0.5-0.3c1.4,0,3.5,0.6,4.7,0.6
	c0.3,0,0.5-0.2,0.5-0.4c0-1.2-3.5-3.5-3.5-4.2s4.3-1.6,4.3-2.6s-5.9-0.3-5.9-1.4c0-0.8,1.1-2.1,1.1-2.6c0-0.3-0.2-0.3-0.6-0.3
	s-3.1,1-4.1,1c-0.5,0-1.2-0.1-1.2-0.8c0-1.2,2-2.5,5.3-2.5c5.2,0,8.4,3.6,8.4,9.7C425.9,204.4,420.6,206.3,417.7,206.3z"/>
<path class="st0" d="M381.6,298.5c0,0.6-0.2,1.1-0.6,1.5c-0.7-1-1.8-1.5-3-1.6c-5.5,0-3.4,7.9-9.3,7.9c-1.2,0-2.4-0.1-3.5-0.3
	c-0.3,0-0.6,0.1-0.6,0.5c0,1.4,2,4.8,7.5,4.8s10.8-3.4,10.8-7.5c0-0.8-0.2-1.5-0.5-2.2c0.3-0.4,0.7-0.6,1.2-0.5c0.8,0,1.3,1,2.1,1
	c0.8,0,1.5-0.6,1.5-1.5c0,0,0,0,0-0.1c0-0.7-0.4-1.3-1-1.5c0.5-0.3,0.7-0.9,0.8-1.4c0-0.9-0.7-1.7-1.6-1.8c0,0-0.1,0-0.1,0
	c-0.5,0-0.9,0.2-1.2,0.5c-0.1-1-0.6-1.8-1.6-1.8c-0.8,0-1.4,0.6-1.4,1.3c0,0.1,0,0.1,0,0.2C381.1,296.9,381.6,297.6,381.6,298.5z"/>
<path class="st0" d="M367.3,300.5c-1.6,0-4-1.7-4-2.7c0-0.7,0.6-1.2,1.3-1.2c1.4,0,3.8,1.6,3.8,3C368.4,300,368.1,300.5,367.3,300.5
	z M352.5,288.6c4.2,1.1,6.4,3.3,6.8,6.1s1,4.7,2,5.8c1.6,1.7,3.9,2.7,6.2,2.8c1.9,0,3.5-0.6,3.5-2.4s-2.6-6.2-6.4-6.2
	c-0.3,0-0.8,0.1-1.4,0.1c-0.6,0-1.1-0.2-1.6-0.5c-0.8-0.8-1.1-4.7-2.7-7.2c-1.3-2.2-3.7-3.6-6.3-3.4c-1.9,0-4,1-4,2.5
	C348.6,287,349,287.7,352.5,288.6z"/>
<path class="st0" d="M379.1,282.1c0-2.4-5-2.5-5-6.1c0.2-1.5,0.9-2.9,1.9-4.1c0.5,2.8,1.6,4.2,4,5.1c4.7,1.8,5.4,4.4,5.4,7.2
	c0,4.8-3.4,10.8-12,10.8c-6.9,0-11.9-6.1-11.9-11.4c0-1.4,0.3-3,1.3-3s1.1,0.6,1.7,1.3c2.4,2.4,5,3,8.8,3
	C376.7,284.9,379.1,283.5,379.1,282.1z M379.4,285.9c-1.8,0.8-2.5,0.7-2.5,2.5c0,0.7-0.1,1.6-0.1,2s0.1,1,0.8,1c1.9,0,5-3.3,5-6
	c0-0.8-0.4-1.1-0.9-1.1S380.7,285.3,379.4,285.9z M362.4,259c0-3.4,8.1-5.2,8.1-9.4c0-1-0.3-1.9-0.8-2.8c2.8,1.6,4.9,4.2,4.9,6.3
	c0,3.7-3.8,5.4-3.8,7.6c0,2.7,4.1,3.1,4.1,6.4c0,2.7-3.9,5.9-3.9,9.4c0,2.8,2.1,5.1,4.9,5.3c-0.9,0.2-1.8,0.3-2.7,0.3
	c-5.4,0-10.9-4.4-10.9-9.7c0-2.5,1-4.8,2.8-6.5c1.5,1.3,3,2.1,4,2.1s1.2-0.4,1.2-1.1C370.2,265,362.4,263.2,362.4,259z"/>
<path class="st0" d="M331.5,285.3c0.2,1.9,1.9,3.2,3.8,3c0.6,0,1.2-0.2,1.8-0.5c0.3,1.7,2,2.9,3.8,2.5c1.8-0.1,3.2-1.7,3.1-3.6
	c0-0.1,0-0.1,0-0.2c0-0.4-0.2-0.8-0.4-1.2c0.2,0,0.3,0,0.5-0.1c1.8-0.3,3.2-1.9,3.1-3.8c-0.2-1.9-1.8-3.3-3.8-3.1
	c-0.7,0.1-1.3,0.3-1.8,0.8c-0.5-1.8-2.2-2.9-4-2.7c-1.9,0.3-3.2,2-2.9,3.9c0,0.4,0.1,0.7,0.3,1.1c-0.2,0-0.4,0.1-0.5,0.1
	C332.6,281.7,331.3,283.4,331.5,285.3z M341.5,283.3c0.1,1.1-0.7,2.1-1.8,2.2s-2.1-0.7-2.2-1.8c-0.1-1.1,0.7-2.1,1.7-2.2
	C340.3,281.4,341.3,282.1,341.5,283.3L341.5,283.3z"/>
<path class="st0" d="M119.7,360.9c0.6,0.5,1,0.6,1.1,0.9c2.5,5.5,2.5,5.5,6.3,0.8c1.4-1.6,2.4-4.5,5-4c2.2,0.5,2.2,3.3,3,5.2
	c1.4,3.1,1.6,7.9,5.3,8.3c4.5,0.4,4.7-4.7,6.3-7.9c1.6-3.3,3.2-6.8,8-6c2,0.3,2.3-1,2.4-2.5c0.3-3.1,0.6-6.2,1-9.4
	c0.1-1.2-0.5-3.1,1.8-3.1c1.9,0.1,2,1.6,2,3.1c0,4.5-0.1,9.1,0.1,13.6c0.2,2.8,0.5,5.5,1.2,8.2c0.6,2.3,1.3,5.3,4.1,5.4
	c2.8,0.1,3.8-2.7,4.4-5.1c0.8-2.7,1.4-5.4,2-8c0.2-1,0-2.3,1.6-2c1.4,0.2,1.4,1.4,1.2,2.5c-0.2,1.9-0.4,3.8-0.7,5.7
	c-0.2,1.4-0.9,3.1,0.3,4c1.4,1,3-0.3,4.3-1.1c2.2-1.4,3.7-3.6,5.1-5.8c1.2-1.7,1.6-3.9,3.9-5.4c1.7,3.3,1.2,6.8,1.6,10.1
	c0.5,4.1,2.1,4.9,5.3,2.4c2.9-2.3,4.9-5.4,5.9-9c1.4-4.2,3.1-4.6,6.4-1.6c2.2,2.2,3.7,5.1,4.2,8.3c0.6,3,1.8,3,3.7,1.2
	c1.7-1.6,4.2-12.3,3.3-14.4s-3.4-1.4-5.3-3.3c4.6-0.7,7.5-2.8,8.3-7.4c0-0.7,0.6-1.2,1.2-1.2c0.6,0,1.1,0.5,1.2,1
	c-0.8,5.7,3.1,6.6,7,7.2c-0.1,1.6-1.1,1.8-1.8,2c-2.3,0.8-5.9-1-6.5,3.4c-0.7,5.3-2.2,10.6,1.5,15.6c1.6,2.1,3.1,1.2,4.1-0.4
	c1.4-2.4,2.5-5,3.8-7.4c1.8-3.5,3.6-5,8.5-5.3c6.9-0.4,5.4,3.1,5.8,6.6c0,0.7,0.1,1.4,0.3,2c0.8,2.2,0.8,5.3,4,5.3
	c3.1,0,3.6-2.8,4.4-5c0.8-2.2,0.6-5.2,2.9-7c0.3,0.2,0.8,0.3,0.9,0.5c2.8,5.6,2.7,5.6,6.8,0.7c0.7-0.8,1.4-1.6,2-2.4
	c2-2.7,3.5-2.3,4.6,0.8c0.7,2,1.4,4,2.1,5.9c2.3,5.9,3,6.1,8.5,2.9c0.5,2.3-0.7,4-2,5.6c-2.4,2.8-4.6,2.7-6.6-0.6
	c-0.1-0.2-0.2-0.3-0.3-0.5c-3.9-8.5-3.6-11.2-13.6-1.7c-3.5,3.4-7.9,6.4-11.9,4.2c-5.1-2.9-8.5-1.1-13.1,0.1
	c-3.4,0.8-7.5-1.2-11.5,0.8c-1.4,0.7-3.7-1.1-4.6-2.8c-1.9-3.4-3.8-2.5-6-0.4c-2.4,2.3-5.7,3.6-9,3.5c-1.8-0.1-3.7-0.8-3.8-2.9
	c-0.1-2.3,2-1.4,3.1-1.5c2.1-0.2,3.3-1.2,3.5-3.1c0.4-2.3-0.5-4.6-2.3-6.1c-1.4-1.2-2,0.5-2.7,1.4c-2.2,3.1-4.2,6.4-7,9
	c-4.4,4-6.7,3.5-7.8-2c-0.9-4.6-2.3-3.8-4.7-1.2c-2,2.1-4,6-6.6,5.4c-4.6-1.2-10.2,1.5-12.8-0.1c-5.5-3.5-9-2.3-13.2,0.9
	c-0.6,0.4-1.3,0.5-2,0.3c-3.2-3.1-6.1-3.4-10-0.6c-1.8,1.3-2.9-1.8-3.9-3.4c-5.2-8.7-5.6-9.1-12.6-1.6c-4.1,4.4-8.9,4-13.7,4.9
	c-1.4,0.2-2.8-0.6-3.4-1.9c-1.6-3.3-3.1-3.1-5.7-0.6c-6.2,5.8-11.7,4-13.7-4.2c-0.1-0.5-0.2-1-0.3-1.5c-0.6-2.5,0.9-5.9-1.8-7.2
	c-3.2-1.4-6.8,0.1-10.2,1c-2.5,0.6-2.4,2.7-2.6,4.6c-0.3,2.6-0.4,5.2-0.8,7.8c-0.2,1.6-1,3-3.1,2.9s-2.5-1.5-2.3-3.3
	c1-9.6,1.4-19-0.3-28.6c-0.3-1.4,0-2.8,2-3s2.9,0.6,3.1,2.6c0.1,1.7,0.4,3.5,0.8,5.2c0.5,2.4-1.2,6.2,1.7,7c3.9,0.8,8,0.4,11.7-1.2
	c1.4-0.5,1.4-2.3,1.5-3.7c0-1.6,0.2-3.2,0.4-4.8c0.6-2.5,0.8-5.9,4.4-5c3.3,0.8,1.4,4,1,5.7c-1.2,6.3-1.3,12.8-0.4,19.1
	c0.3,2.5,1,5.6,4.3,5.7c3.1,0.1,5-2.3,5.9-5c0.7-2,0.8-4.1,1.5-6.1c0.5-1.4,0.9-3.4,3-2.9c1.8,0.3,1.6,2,1.6,3.4
	c0,1.7-0.1,3.5-0.2,5.2c-0.1,2.4,0.3,4.8,3.1,5.3c2.5,0.5,4.2-1.2,5.4-3.4C117.5,367.3,117,363.6,119.7,360.9z M157.7,365.5
	c-0.3-1.9-0.2-4.1-2.8-4.4c-2.4-0.2-5.5,5-5.5,9.1c0,1.9,0.4,3.9,2.7,3.5C156.6,372.9,157.1,369,157.7,365.5L157.7,365.5z
	 M235.6,369.6c0.2,1.7-0.1,4.1,2.2,4c3.8-0.2,4.9-3.3,5-6.5c0.1-1.9,0.1-4.5-2.4-4.3C236.7,363.1,236.3,366.6,235.6,369.6
	L235.6,369.6z"/>
<path class="st0" d="M538.3,360.9c0.8,1.9,1.5,3.8,2.4,5.8c2.9-1.4,4.1-4,5.8-6.1c2.7-3.2,3.9-2.4,5.1,1c2.1,5.7,2.2,5.6,6.6,1.2
	c1.8-1.8,3.1-5.2,5.9-4.3s2.4,4.6,3.1,7.2c0,0.3,0.1,0.7,0.1,1c0.7,2.2-0.1,5.7,2.8,6c3.4,0.3,4.8-2.9,5.7-5.8
	c0.1-0.5,0.1-1,0.3-1.6c0.5-2.5,0.2-6.2,3.6-5.8c2.5,0.3,1.2,3.8,1.3,5.9c0.1,1.2-0.1,2.5,0,3.6c0.2,2,1.1,3.8,3.2,4.2
	c1.9,0.4,3.3-0.8,4.3-2.4c2.9-4.8,3.2-10.2,3.4-15.6c0.1-3.2-4.3-0.9-5-4c3.8-0.5,7.2-1.8,7.7-6.4c0.1-0.9,0.9-1.5,1.7-1.4
	c0.1,0,0.1,0,0.2,0c0.4,0.1,1,0.8,1,1c-1.3,5.9,3.7,5.7,7,6.8c-0.2,1.4-1.2,1.5-1.9,1.8c-2.4,0.8-5.9-0.8-6.5,3.4
	c-0.8,5.3-2.1,10.7,1.3,15.6c1,1.3,2.7,1.8,4.2,1.4c2-0.3,1.6-2,1.6-3.3c0.3-3.1,0.8-6.3,2.6-8.9s4.3-5.3,7.7-2.8
	c3.1,2.3,2.9,5.7,0.8,8.9c-0.8,1-1.6,1.9-2.5,2.7c-0.8,0.8-2.5,1.4-1.4,2.9c0.8,1.1,2.2,0.8,3.4,0.6c3.2-0.5,5-2.9,6.6-5.4
	c2.8-4.4,3.5-11.1,11.3-10.3c1.4,0.1,1.4-2.2,1.5-3.5c0.3-2.9,0.3-5.9,0.5-8.9c0.1-1,0.3-2.2,1.6-2.2c1.6-0.1,2,1.2,2,2.5
	c0,3.5-0.1,7,0,10.5c0.1,3.3,0.5,6.6,1,9.8c1.1,6.4,2.8,7.5,8.9,6.1c-3.2,5.8-6.6,6.5-10.9,1.8c-2-2.2-2.9-1.2-4.5,0.2
	c-3.5,3.1-7.2,5.5-10.6-0.3c-1.1-1.9-2.4-0.7-3.5,0.1c-3.8,2.7-7.8,3.5-12.3,1.8c-1-0.4-2.1-0.3-3,0.1c-1,0.4-1.9,0.7-2.9,1
	c-4.3,1.4-5.9-3.4-8.8-4s-4.4,4.9-8.3,4.1c-0.9-0.1-1.6-0.6-2.2-1.3c-2.6-5.4-5.3-3-8.7-0.6c-4.9,3.4-6.1,2.7-7.3-2.9
	c-0.1-0.5-0.3-1-0.4-1.5c-0.4-1.6-0.4-3.9-2.1-4.5c-1.9-0.6-2.9,1.5-4,2.7c-1.8,1.9-3.3,4-5,6c-0.7,0.8-1.5,1.7-2.6,1.3
	s-0.8-1.7-0.9-2.7c-0.1-2.3,1.1-5.7-1.3-6.7c-2.9-1.2-5.2,2-6.5,4.1c-3.3,5.5-8.9,4.6-13.7,6.1c-1.3,0.3-2.6-0.3-3.1-1.4
	c-2.3-4.6-5.1-3.3-8.2-1.1c-0.3,0.2-0.6,0.4-1,0.5c-13.1,5.9-18.7,2.3-18.5-11.9c0-5.2,0.5-10.4,1.6-15.6c0.5-2.5,1-5.5,4.2-4.9
	c3.4,0.8,1.8,4,1.4,6.1c-1.3,5.4-1.8,11-1.4,16.6c0.3,3.2-0.3,7.3,4.7,8c5.3,0.8,11.1-2,12.5-6.3c0.8-2.1,1.2-4.4,2-6.5
	c0.3-1,1-2.1,2.1-1.9s1.4,1.4,1.5,2.5c0.1,2.2,0.1,4.5,0,6.8c0,2.5,0.3,4.8,3.2,5.3c2.6,0.4,4.3-1.2,5.3-3.4c0.8-1.6,1-3.3,1.6-4.9
	C536.2,363.8,536.1,361.9,538.3,360.9z M625.2,370.6c0.2,1.5,0.2,3.3,2.6,3.5c2.7,0.1,5.6-4.2,5.5-8.3c0-2-0.3-4-2.7-4.4
	S625.1,366.4,625.2,370.6L625.2,370.6z M606.6,366.9c0.3,1.4-0.1,3.7,2,3.5c2.6-0.2,3.5-2.7,3.5-5c0-1.7-0.8-3.9-2.8-3.5
	C607,362.3,606.8,364.8,606.6,366.9L606.6,366.9z"/>
<path class="st0" d="M524.5,343.2c1.7,0.4,3,1.2,2.8,2.8c-0.2,1.9-1.2,3.4-3.2,3.5c-1.7,0.1-2.4-1.2-2.4-2.7
	C521.6,345,522.8,343.5,524.5,343.2z"/>
<path class="st0" d="M106.5,342.9c1.4,0,2.7,1.1,2.7,2.5c0.1,2-0.8,3.8-3.1,4c-1.6,0.1-2.3-1.2-2.4-2.7
	C103.6,344.9,104.8,343.3,106.5,342.9z"/>
<path class="st0" d="M582.7,346.9c-0.2,1.5-1.6,2.7-3.1,2.6c-1.3,0-2.4-1.1-2.4-2.4c0-0.1,0-0.3,0-0.4c-0.1-1.7,1.2-3.1,2.9-3.2
	c0.1,0,0.3,0,0.4,0C582.2,343.5,583,344.5,582.7,346.9z"/>
</svg>
